<svg width="79" height="80" viewBox="0 0 79 80" fill="none" xmlns="http://www.w3.org/2000/svg">
<circle cx="39.5" cy="39.5" r="39.5" fill="#C4C4C4"/>
<path d="M39.5 0.100784C17.6842 0.100784 0 17.8047 0 39.645C0 61.4853 17.6842 79.1893 39.5 79.1893C61.3158 79.1893 79 61.4853 79 39.645C79 17.8047 61.3158 0.100784 39.5 0.100784ZM39.5 73.2576C35.0906 73.2574 30.7244 72.3876 26.6508 70.6981C22.5772 69.0086 18.8758 66.5323 15.7581 63.4107C12.6403 60.2892 10.1673 56.5834 8.48014 52.505C6.79298 48.4265 5.92474 44.0554 5.925 39.6411C5.92526 35.2267 6.79401 30.8557 8.48165 26.7775C10.1693 22.6993 12.6428 18.9938 15.7609 15.8725C18.879 12.7513 22.5806 10.2755 26.6544 8.58647C30.7283 6.89741 35.0946 6.02821 39.504 6.02847C48.4091 6.02899 56.9493 9.57102 63.2459 15.8753C69.5424 22.1797 73.0795 30.7299 73.0789 39.645C73.0784 48.5602 69.5404 57.1099 63.2431 63.4135C56.9458 69.7171 48.4052 73.2581 39.5 73.2576ZM39.5 41.6222C27.4999 41.6222 17.775 48.4555 17.775 55.4627C17.775 62.47 27.4999 69.3032 39.5 69.3032C51.5001 69.3032 61.225 62.47 61.225 55.4627C61.225 48.4555 51.5001 41.6222 39.5 41.6222ZM39.5 39.645C42.6428 39.645 45.6569 38.3951 47.8792 36.1703C50.1015 33.9456 51.35 30.9281 51.35 27.7817C51.35 24.6354 50.1015 21.6179 47.8792 19.3932C45.6569 17.1684 42.6428 15.9185 39.5 15.9185C36.3572 15.9185 33.3431 17.1684 31.1208 19.3932C28.8985 21.6179 27.65 24.6354 27.65 27.7817C27.65 30.9281 28.8985 33.9456 31.1208 36.1703C33.3431 38.3951 36.3572 39.645 39.5 39.645Z" fill="#737581"/>
</svg>
